<svg width="452" height="264" viewBox="0 0 452 264" fill="none" xmlns="http://www.w3.org/2000/svg">
<path d="M15.1071 157.682C11.7948 157.682 9.01952 157.156 6.78143 156.104C4.54333 155.052 2.85357 153.463 1.71214 151.337C0.570715 149.188 0 146.513 0 143.313C0 142.798 0 142.384 0 142.071C0 141.735 0 141.31 0 140.795H2.61857C2.61857 141.31 2.61857 141.724 2.61857 142.037C2.61857 142.351 2.61857 142.765 2.61857 143.279C2.61857 147.442 3.68167 150.497 5.80786 152.444C7.93405 154.369 10.989 155.332 14.9729 155.332C19.1581 155.332 22.2914 154.481 24.3729 152.78C26.4767 151.057 27.5286 148.561 27.5286 145.294C27.5286 143.011 27.0026 141.142 25.9507 139.687C24.9212 138.21 23.4664 136.968 21.5864 135.961C19.7288 134.954 17.5243 134.025 14.9729 133.174C12.0633 132.212 9.5119 131.115 7.31857 129.884C5.12524 128.631 3.42429 127.12 2.21571 125.352C1.00714 123.562 0.402857 121.335 0.402857 118.672C0.402857 116.142 0.973572 114.016 2.115 112.293C3.27881 110.57 4.92381 109.272 7.05 108.399C9.19857 107.503 11.75 107.056 14.7043 107.056C17.86 107.056 20.5569 107.548 22.795 108.533C25.0331 109.495 26.7452 110.984 27.9314 112.998C29.14 114.99 29.7443 117.53 29.7443 120.619C29.7443 121.201 29.7443 121.682 29.7443 122.062C29.7443 122.42 29.7443 122.89 29.7443 123.472H27.1257C27.1257 122.913 27.1257 122.454 27.1257 122.096C27.1257 121.715 27.1257 121.245 27.1257 120.686C27.1257 116.702 26.0402 113.826 23.8693 112.058C21.7207 110.29 18.6881 109.406 14.7714 109.406C11.0338 109.406 8.13548 110.178 6.07643 111.722C4.01738 113.267 2.98786 115.583 2.98786 118.672C2.98786 120.977 3.55857 122.89 4.7 124.412C5.86381 125.912 7.45286 127.176 9.46714 128.206C11.4814 129.213 13.7755 130.153 16.3493 131.026C19.2588 131.988 21.7319 133.062 23.7686 134.249C25.8276 135.435 27.3943 136.89 28.4686 138.613C29.5652 140.336 30.1136 142.53 30.1136 145.193C30.1136 147.812 29.5317 150.05 28.3679 151.907C27.2264 153.765 25.5367 155.197 23.2986 156.204C21.0829 157.189 18.3524 157.682 15.1071 157.682Z" fill="white"/>
<path d="M40.057 157.077V107.559H42.6084V157.077H40.057Z" fill="white"/>
<path d="M67.6281 157.682C64.3157 157.682 61.5404 157.156 59.3023 156.104C57.0643 155.052 55.3745 153.463 54.2331 151.337C53.0916 149.188 52.5209 146.513 52.5209 143.313C52.5209 142.798 52.5209 142.384 52.5209 142.071C52.5209 141.735 52.5209 141.31 52.5209 140.795H55.1395C55.1395 141.31 55.1395 141.724 55.1395 142.037C55.1395 142.351 55.1395 142.765 55.1395 143.279C55.1395 147.442 56.2026 150.497 58.3288 152.444C60.455 154.369 63.51 155.332 67.4938 155.332C71.679 155.332 74.8123 154.481 76.8938 152.78C78.9976 151.057 80.0495 148.561 80.0495 145.294C80.0495 143.011 79.5235 141.142 78.4716 139.687C77.4421 138.21 75.9873 136.968 74.1073 135.961C72.2497 134.954 70.0452 134.025 67.4938 133.174C64.5843 132.212 62.0328 131.115 59.8395 129.884C57.6462 128.631 55.9452 127.12 54.7366 125.352C53.5281 123.562 52.9238 121.335 52.9238 118.672C52.9238 116.142 53.4945 114.016 54.6359 112.293C55.7997 110.57 57.4447 109.272 59.5709 108.399C61.7195 107.503 64.2709 107.056 67.2252 107.056C70.3809 107.056 73.0778 107.548 75.3159 108.533C77.554 109.495 79.2662 110.984 80.4523 112.998C81.6609 114.99 82.2652 117.53 82.2652 120.619C82.2652 121.201 82.2652 121.682 82.2652 122.062C82.2652 122.42 82.2652 122.89 82.2652 123.472H79.6466C79.6466 122.913 79.6466 122.454 79.6466 122.096C79.6466 121.715 79.6466 121.245 79.6466 120.686C79.6466 116.702 78.5612 113.826 76.3902 112.058C74.2416 110.29 71.209 109.406 67.2924 109.406C63.5547 109.406 60.6564 110.178 58.5974 111.722C56.5383 113.267 55.5088 115.583 55.5088 118.672C55.5088 120.977 56.0795 122.89 57.2209 124.412C58.3847 125.912 59.9738 127.176 61.9881 128.206C64.0023 129.213 66.2964 130.153 68.8702 131.026C71.7797 131.988 74.2528 133.062 76.2895 134.249C78.3485 135.435 79.9152 136.89 80.9895 138.613C82.0862 140.336 82.6345 142.53 82.6345 145.193C82.6345 147.812 82.0526 150.05 80.8888 151.907C79.7474 153.765 78.0576 155.197 75.8195 156.204C73.6038 157.189 70.8733 157.682 67.6281 157.682Z" fill="white"/>
<path d="M119.435 109.876H105.134L105.906 108.466V157.077H103.287V108.466L104.16 109.876H89.7915V107.559H119.435V109.876Z" fill="white"/>
<path d="M129.771 109.876L130.946 108.466V132.066L130.141 131.093H150.989V133.376H130.141L130.946 132.402V156.171L129.771 154.761H153.372V157.077H128.361V107.559H153.372V109.876H129.771Z" fill="white"/>
<path d="M199.038 107.559H203.402V157.077H200.918V109.641L201.086 109.674L186.147 157.077H182.219L167.313 109.674L167.481 109.641V157.077H164.997V107.559H169.361L184.267 155.264H184.065L199.038 107.559Z" fill="white"/>
<path d="M212.275 157.077L226.744 107.358H230.638L245.007 157.077H242.288L228.658 109.339H228.725L214.994 157.077H212.275ZM218.116 142.608V140.292H239.266V142.608H218.116Z" fill="white"/>
<path d="M284.072 157.682C280.76 157.682 277.984 157.156 275.746 156.104C273.508 155.052 271.818 153.463 270.677 151.337C269.536 149.188 268.965 146.513 268.965 143.313C268.965 142.798 268.965 142.384 268.965 142.071C268.965 141.735 268.965 141.31 268.965 140.795H271.583C271.583 141.31 271.583 141.724 271.583 142.037C271.583 142.351 271.583 142.765 271.583 143.279C271.583 147.442 272.646 150.497 274.773 152.444C276.899 154.369 279.954 155.332 283.938 155.332C288.123 155.332 291.256 154.481 293.338 152.78C295.441 151.057 296.493 148.561 296.493 145.294C296.493 143.011 295.967 141.142 294.916 139.687C293.886 138.21 292.431 136.968 290.551 135.961C288.694 134.954 286.489 134.025 283.938 133.174C281.028 132.212 278.477 131.115 276.283 129.884C274.09 128.631 272.389 127.12 271.181 125.352C269.972 123.562 269.368 121.335 269.368 118.672C269.368 116.142 269.938 114.016 271.08 112.293C272.244 110.57 273.889 109.272 276.015 108.399C278.163 107.503 280.715 107.056 283.669 107.056C286.825 107.056 289.522 107.548 291.76 108.533C293.998 109.495 295.71 110.984 296.896 112.998C298.105 114.99 298.709 117.53 298.709 120.619C298.709 121.201 298.709 121.682 298.709 122.062C298.709 122.42 298.709 122.89 298.709 123.472H296.091C296.091 122.913 296.091 122.454 296.091 122.096C296.091 121.715 296.091 121.245 296.091 120.686C296.091 116.702 295.005 113.826 292.834 112.058C290.686 110.29 287.653 109.406 283.736 109.406C279.999 109.406 277.1 110.178 275.041 111.722C272.982 113.267 271.953 115.583 271.953 118.672C271.953 120.977 272.523 122.89 273.665 124.412C274.829 125.912 276.418 127.176 278.432 128.206C280.446 129.213 282.74 130.153 285.314 131.026C288.224 131.988 290.697 133.062 292.733 134.249C294.792 135.435 296.359 136.89 297.433 138.613C298.53 140.336 299.078 142.53 299.078 145.193C299.078 147.812 298.496 150.05 297.333 151.907C296.191 153.765 294.501 155.197 292.263 156.204C290.048 157.189 287.317 157.682 284.072 157.682Z" fill="white"/>
<path d="M325.371 157.682C322.618 157.682 320.089 157.111 317.784 155.969C315.479 154.806 313.476 153.127 311.775 150.934C310.096 148.718 308.787 146.043 307.847 142.91C306.929 139.777 306.47 136.229 306.47 132.268C306.47 128.307 306.94 124.77 307.88 121.659C308.82 118.526 310.141 115.885 311.842 113.737C313.543 111.566 315.535 109.909 317.818 108.768C320.123 107.627 322.641 107.056 325.371 107.056C328.102 107.056 330.619 107.627 332.925 108.768C335.23 109.909 337.233 111.566 338.934 113.737C340.635 115.885 341.944 118.526 342.862 121.659C343.802 124.77 344.272 128.307 344.272 132.268C344.272 136.229 343.802 139.777 342.862 142.91C341.944 146.043 340.635 148.718 338.934 150.934C337.255 153.127 335.263 154.806 332.958 155.969C330.653 157.111 328.124 157.682 325.371 157.682ZM325.371 155.332C328.549 155.332 331.358 154.414 333.798 152.579C336.259 150.721 338.173 148.069 339.538 144.622C340.926 141.153 341.62 137.035 341.62 132.268C341.62 127.478 340.915 123.383 339.505 119.981C338.117 116.557 336.203 113.949 333.764 112.159C331.324 110.346 328.527 109.439 325.371 109.439C322.238 109.439 319.44 110.346 316.978 112.159C314.539 113.949 312.614 116.557 311.204 119.981C309.816 123.383 309.123 127.478 309.123 132.268C309.123 137.057 309.816 141.176 311.204 144.622C312.614 148.069 314.539 150.721 316.978 152.579C319.44 154.414 322.238 155.332 325.371 155.332Z" fill="white"/>
<path d="M353.46 157.077V107.559H356.045V156.171L354.87 154.761H376.323V157.077H353.46Z" fill="white"/>
<path d="M382.689 157.077L397.158 107.358H401.053L415.421 157.077H412.702L399.072 109.339H399.139L385.408 157.077H382.689ZM388.53 142.608V140.292H409.68V142.608H388.53Z" fill="white"/>
<path d="M423.685 157.077V107.559H438.96C443.078 107.559 446.256 108.567 448.494 110.581C450.732 112.573 451.851 115.773 451.851 120.182C451.851 122.868 451.337 125.151 450.307 127.031C449.3 128.911 448.103 130.366 446.715 131.395C445.327 132.402 444.085 132.984 442.989 133.141C444.085 133.23 445.204 133.555 446.346 134.114C447.51 134.652 448.483 135.491 449.266 136.632C450.05 137.751 450.441 139.262 450.441 141.164C450.441 143.179 450.441 145.271 450.441 147.442C450.441 149.591 450.441 151.672 450.441 153.687C450.441 154.559 450.52 155.309 450.676 155.936C450.833 156.54 450.967 156.921 451.079 157.077H448.427C448.338 156.898 448.215 156.518 448.058 155.936C447.924 155.332 447.856 154.582 447.856 153.687C447.856 151.739 447.856 149.714 447.856 147.61C447.856 145.506 447.856 143.481 447.856 141.534C447.856 139.027 447.04 137.203 445.406 136.062C443.772 134.92 441.59 134.349 438.859 134.349H425.364L426.203 133.309V157.077H423.685ZM426.203 133.174L425.364 132.066H438.859C440.717 132.066 442.429 131.585 443.996 130.623C445.562 129.661 446.816 128.307 447.756 126.561C448.718 124.815 449.199 122.734 449.199 120.317C449.199 116.601 448.271 113.938 446.413 112.327C444.578 110.693 441.892 109.876 438.356 109.876H425.33L426.203 108.734V133.174Z" fill="white"/>
<mask id="mask0_2_169" style="mask-type:alpha" maskUnits="userSpaceOnUse" x="105" y="35" width="269" height="194">
<path fill-rule="evenodd" clip-rule="evenodd" d="M173.365 222.986C202.89 216.655 238.926 201.283 274.406 178.315C309.885 155.346 337.936 129.228 354.636 105.634C362.99 93.8317 368.441 82.7471 370.617 73.0708C372.791 63.3972 371.656 55.3324 367.157 49.2771C362.658 43.2218 354.964 39.4031 344.496 37.9142C334.025 36.4248 320.993 37.3065 306.224 40.4736C276.699 46.805 240.663 62.1765 205.183 85.1452C169.704 108.114 141.653 134.232 124.953 157.826C116.599 169.628 111.148 180.713 108.972 190.389C106.798 200.063 107.933 208.128 112.432 214.183C116.931 220.238 124.625 224.057 135.093 225.546C145.564 227.035 158.596 226.153 173.365 222.986ZM110.753 215.27C130.527 241.884 204.331 226.058 275.598 179.92C346.866 133.782 388.61 74.8049 368.836 48.1902C349.062 21.5755 275.258 37.402 203.991 83.5398C132.723 129.677 90.979 188.655 110.753 215.27Z" fill="white"/>
</mask>
<g mask="url(#mask0_2_169)">
<path d="M190.512 5.80737L474.807 5.80737L228.135 248.472L50.465 248.745L125.307 147.08L128.307 159.58L176.307 128.08L169.807 100.08L190.512 5.80737Z" fill="white"/>
</g>
</svg>
